M48
; DRILL file {KiCad 9.0.3} date 2025-08-03T00:50:23+0100
; FORMAT={-:-/ absolute / metric / decimal}
; #@! TF.CreationDate,2025-08-03T00:50:23+01:00
; #@! TF.GenerationSoftware,Kicad,Pcbnew,9.0.3
; #@! TF.FileFunction,Plated,1,2,PTH
FMAT,2
METRIC
; #@! TA.AperFunction,Plated,PTH,ViaDrill
T1C0.300
; #@! TA.AperFunction,Plated,PTH,ComponentDrill
T2C0.700
; #@! TA.AperFunction,Plated,PTH,ComponentDrill
T3C0.889
; #@! TA.AperFunction,Plated,PTH,ComponentDrill
T4C0.900
; #@! TA.AperFunction,Plated,PTH,ComponentDrill
T5C0.990
; #@! TA.AperFunction,Plated,PTH,ComponentDrill
T6C1.000
%
G90
G05
T1
X137.1Y-62.9
X138.0Y-81.0
X138.0Y-82.0
X143.8Y-68.4
X144.0Y-61.2
X144.8Y-77.8
X145.2Y-68.4
X146.4Y-68.4
X149.8Y-75.2
X151.4Y-65.6
X151.4Y-73.6
X152.0Y-61.4
X152.6Y-73.6
X156.0Y-61.4
X160.4Y-63.4
X163.8Y-63.2
X168.8Y-69.2
X170.0Y-74.4
X172.8Y-68.0
X174.4Y-68.8
T2
X97.0Y-39.96
X97.0Y-45.04
X105.5Y-39.96
X105.5Y-45.04
X113.5Y-39.96
X113.5Y-45.04
X121.5Y-39.96
X121.5Y-45.04
X129.5Y-39.96
X129.5Y-45.04
X137.5Y-39.92
X137.5Y-45.0
X145.5Y-39.96
X145.5Y-45.04
X153.5Y-39.92
X153.5Y-45.0
X171.42Y-65.0
X171.92Y-82.0
X172.1Y-77.5
X176.5Y-65.0
X177.0Y-82.0
X177.18Y-77.5
T3
X165.38Y-41.38
X165.38Y-43.92
X165.38Y-46.46
X165.38Y-49.0
X165.38Y-51.54
X165.38Y-54.08
X165.38Y-56.62
X180.62Y-41.38
X180.62Y-43.92
X180.62Y-46.46
X180.62Y-49.0
X180.62Y-51.54
X180.62Y-54.08
X180.62Y-56.62
T4
X95.67Y-50.4
X98.21Y-50.4
X104.14Y-50.4
X106.68Y-50.4
X112.21Y-50.4
X114.75Y-50.4
X120.21Y-50.4
X122.75Y-50.4
X128.21Y-50.4
X130.75Y-50.4
X136.21Y-50.4
X138.75Y-50.4
X144.21Y-50.4
X146.75Y-50.4
X152.21Y-50.4
X154.75Y-50.4
T5
X95.25Y-61.15
X95.25Y-61.15
X95.25Y-65.65
X95.25Y-65.65
X95.25Y-71.4
X95.25Y-71.4
X95.25Y-75.9
X95.25Y-75.9
X101.75Y-61.15
X101.75Y-61.15
X101.75Y-65.65
X101.75Y-65.65
X101.75Y-71.4
X101.75Y-71.4
X101.75Y-75.9
X101.75Y-75.9
T6
X118.44Y-57.6
X118.44Y-57.6
X120.98Y-57.6
X120.98Y-57.6
X123.52Y-57.6
X123.52Y-57.6
X126.06Y-57.6
X126.06Y-57.6
M30
